<svg id="Layer_1" data-name="Layer 1" xmlns="http://www.w3.org/2000/svg" viewBox="0 0 121 150"><defs><style>.cls-1{fill:#747272;}.cls-2{fill:none;stroke:#747272;stroke-miterlimit:10;stroke-width:4px;}.cls-3{fill:#2e66f4;}</style></defs><path class="cls-1" d="M13.6,91.83v8.86A2.35,2.35,0,0,0,16,103h18.5a27.94,27.94,0,0,0-.18,3.17v9.17a2.36,2.36,0,0,0,2.36,2.35H87.2a2.36,2.36,0,0,0,2.36-2.35v-9.17c0-1.06-.06-2.12-.17-3.17h18.55a2.33,2.33,0,0,0,2.24-2.38l0-8.83A19.55,19.55,0,0,0,96.67,73.27a12,12,0,0,0,3.53-8.53,12.15,12.15,0,1,0-24.3-.48h0a15.29,15.29,0,0,0-29.41-1,12.14,12.14,0,0,0-24.17,1.51,12,12,0,0,0,3.85,8.84A19.54,19.54,0,0,0,13.6,91.83Zm91.88,0V98.4H88.29A27.67,27.67,0,0,0,75.35,82.14,14.94,14.94,0,0,1,86.7,76.88h3.84a15,15,0,0,1,15,15ZM88,57.24a7.55,7.55,0,1,1-7.55,7.55h0A7.56,7.56,0,0,1,88,57.24ZM76.34,68.05a12,12,0,0,0,3.38,5.56,19.8,19.8,0,0,0-8.67,6.58,3.84,3.84,0,0,0-.6-.2A15.31,15.31,0,0,0,76.34,68.05ZM61,57.24a10.71,10.71,0,1,1-10.71,10.7A10.71,10.71,0,0,1,61,57.24h0Zm.78,26a23,23,0,0,1,23,23V113H38.87v-6.82a23,23,0,0,1,23-23h0Zm-16-14.12a15,15,0,0,0,2.09,6.54,18.8,18.8,0,0,0-4.7-2.35,12.31,12.31,0,0,0,2.63-4.21ZM34.43,57.32a7.56,7.56,0,1,1-7.56,7.55h0a7.57,7.57,0,0,1,7.51-7.62h.07Zm-1.31,19.6H37a14.85,14.85,0,0,1,11.37,5.24A27.75,27.75,0,0,0,35.4,98.43H18.19V91.86A15,15,0,0,1,33.12,76.92Z"/><path class="cls-2" d="M107.89,96.24a46,46,0,0,1-91.95,0"/><path class="cls-3" d="M95.71,7.64V7.27a1.13,1.13,0,0,0,0-.26.68.68,0,0,0-.18-.23l-.24-.31H95a1,1,0,0,0-.34-.16h-18a2.19,2.19,0,0,0-.77.13,1.88,1.88,0,0,0-.63.36,1.76,1.76,0,0,0-.42.53,1.53,1.53,0,0,0,0,1.28,1.61,1.61,0,0,0,.42.52,1.75,1.75,0,0,0,.63.37,2.19,2.19,0,0,0,.77.13H89.39L58.94,39.49,47.47,29a1.86,1.86,0,0,0-.68-.4,2,2,0,0,0-.81-.1,2.18,2.18,0,0,0-.78.18,2,2,0,0,0-.63.42L14.11,59.44a1.49,1.49,0,0,0-.22,1.85,1.71,1.71,0,0,0,.46.51,2.7,2.7,0,0,0,.31.2l.36.13a2.2,2.2,0,0,0,.37.06h.39a1.5,1.5,0,0,0,.37,0l.36-.12a3.37,3.37,0,0,0,.32-.19,2.76,2.76,0,0,0,.27-.23l29-29L57.56,42.78a1.19,1.19,0,0,0,.31.23l.35.17.39.09h.81l.38-.09.35-.17a1.39,1.39,0,0,0,.31-.23L91.83,12.2V22.82a1.39,1.39,0,0,0,.15.63,1.32,1.32,0,0,0,.44.53,1.46,1.46,0,0,0,.61.36,2.23,2.23,0,0,0,.77.14,2,2,0,0,0,.74-.14,1.5,1.5,0,0,0,.64-.36,1.7,1.7,0,0,0,.43-.53,1.38,1.38,0,0,0,.14-.63V7.64Z"/></svg>