<svg id="Layer_1" data-name="Layer 1" xmlns="http://www.w3.org/2000/svg" viewBox="0 0 121 150"><defs><style>.cls-1{fill:#2e66f4;}.cls-2{fill:#747272;}</style></defs><path class="cls-1" d="M33.85,60.78v7.53a2,2,0,0,0,2,2H51.58A23.85,23.85,0,0,0,51.43,73v7.8a2,2,0,0,0,2,2h43a2,2,0,0,0,2-2V73a26.47,26.47,0,0,0-.14-2.69h15.77a2,2,0,0,0,1.95-2V60.78A16.62,16.62,0,0,0,104.48,45a10.23,10.23,0,0,0,3-7.25,10.33,10.33,0,0,0-20.66-.41,13,13,0,0,0-25-.88,10.32,10.32,0,0,0-20.55,1.29,10.17,10.17,0,0,0,3.27,7.51A16.62,16.62,0,0,0,33.85,60.78Zm78.12,0v5.58H97.35a23.51,23.51,0,0,0-11-13.82A12.69,12.69,0,0,1,96,48.07h3.27A12.73,12.73,0,0,1,112,60.78ZM97.13,31.37a6.42,6.42,0,1,1-6.42,6.41A6.43,6.43,0,0,1,97.13,31.37Zm-9.94,9.19a10.27,10.27,0,0,0,2.88,4.73,16.74,16.74,0,0,0-7.37,5.59,3.39,3.39,0,0,0-.51-.17A13,13,0,0,0,87.19,40.56Zm-13-9.19a9.1,9.1,0,1,1-9.11,9.1A9.11,9.11,0,0,1,74.21,31.37Zm.66,22.07A19.55,19.55,0,0,1,94.4,73V78.8H55.34V73A19.54,19.54,0,0,1,74.87,53.44Zm-13.63-12A12.83,12.83,0,0,0,63,47a15.67,15.67,0,0,0-4-2A10.48,10.48,0,0,0,61.24,41.42Zm-9.66-10a6.42,6.42,0,1,1-6.42,6.41A6.43,6.43,0,0,1,51.58,31.37ZM50.45,48.1h3.27a12.63,12.63,0,0,1,9.67,4.46,23.57,23.57,0,0,0-11,13.83H37.76V60.8A12.7,12.7,0,0,1,50.45,48.1Z"/><path class="cls-2" d="M20.77,84H4.56A2,2,0,0,0,2.61,86v36.09a2,2,0,0,0,1.95,2H20.77a2,2,0,0,0,1.95-2V119h7.82l23.16,7.34a39.73,39.73,0,0,0,14.06,2.9,40,40,0,0,0,14.11-2.92,1.85,1.85,0,0,0,.56-.32l33.94-27.65a4,4,0,0,1,.29-.29,8.19,8.19,0,0,0-.29-10.44,6.74,6.74,0,0,0-9.57-.66l-17,13.68v-.51A7.39,7.39,0,0,0,82.7,92.7H63.88A3.26,3.26,0,0,1,61.15,91a2.47,2.47,0,0,0-.54-.58A26.87,26.87,0,0,0,33.68,87.5L30.41,89H22.72V86A1.94,1.94,0,0,0,20.77,84Zm-8.4,33.16a2,2,0,1,1,2-2A2,2,0,0,1,12.37,117.2Zm6.45-26.26v29.19h-3.2a5.86,5.86,0,1,0-6.5,0H6.51V87.94H18.82Zm12,2a1.74,1.74,0,0,0,.78-.17l3.67-1.63A23.05,23.05,0,0,1,58.05,93.4a7,7,0,0,0,5.86,3.2H82.73A3.46,3.46,0,0,1,86,100.16,3.81,3.81,0,0,1,84.9,103a3.19,3.19,0,0,1-1.17.76,9.57,9.57,0,0,1-1.69.15H61.1a2,2,0,1,0,0,3.9H82.92a6.75,6.75,0,0,0,1.74-.22,15.2,15.2,0,0,0,6.76-3.12L109.34,90l0,0a2.91,2.91,0,0,1,4.16.3,4.29,4.29,0,0,1,.24,5.24L80.29,122.76c-9.48,3.46-15.65,3.41-25.2-.12,0,0-.05,0-.1,0l-23.48-7.46a2.35,2.35,0,0,0-.59-.1h-8.2V92.87h8.13Z"/></svg>