<svg id="Layer_1" data-name="Layer 1" xmlns="http://www.w3.org/2000/svg" xmlns:xlink="http://www.w3.org/1999/xlink" viewBox="0 0 121 150"><defs><style>.cls-1{fill:none;}.cls-2{clip-path:url(#clip-path);}.cls-3{fill:#747272;}.cls-4{fill:#2e66f4;}</style><clipPath id="clip-path"><rect class="cls-1" x="3.64" y="18.41" width="114.62" height="114.64"/></clipPath></defs><g class="cls-2"><path class="cls-3" d="M89.65,71.91a24.54,24.54,0,0,1-17.22-7c0-.21,0-.42,0-.63h0V58.56a26.51,26.51,0,0,0-6.8-17.74,24.79,24.79,0,1,1,24,31.09Zm-22-5a3.79,3.79,0,0,1-2.81,1.23A1.91,1.91,0,0,0,63,70.21c0,.58,1.28,14.55-15.17,20.43a6,6,0,0,1-4,0C27.32,84.76,28.54,70.82,28.6,70.21a1.87,1.87,0,0,0-.48-1.48,1.89,1.89,0,0,0-1.41-.63,3.82,3.82,0,1,1,0-7.63c.73,0,18-.08,25.32-7.45a.68.68,0,0,1,.64-.2,1.1,1.1,0,0,1,.78.59,12,12,0,0,0,11.27,7.06A4,4,0,0,1,68.65,64,3.76,3.76,0,0,1,67.66,66.87Zm13.91,43.88L83.91,127a1.87,1.87,0,0,1-.44,1.5,2,2,0,0,1-1.51.67H9.6a2,2,0,0,1-1.51-.67A1.86,1.86,0,0,1,7.65,127L10,110.75a9.5,9.5,0,0,1,5.52-7.29l18.83-8.68v.06a11.44,11.44,0,0,0,22.88-.06l18.84,8.68A9.47,9.47,0,0,1,81.57,110.75ZM53.22,92.4l.16,1.72a7.61,7.61,0,0,1-7.6,8.31,7.61,7.61,0,0,1-7.63-7.59c0-.25,0-.49,0-.72l.16-1.72a33.87,33.87,0,0,0,4.14,1.83,9.84,9.84,0,0,0,6.6,0A33.87,33.87,0,0,0,53.22,92.4ZM45.78,35.67A22.91,22.91,0,0,1,68.63,57.73a8,8,0,0,0-3.88-1.08,8.18,8.18,0,0,1-7.88-4.92,4.9,4.9,0,0,0-3.59-2.68,4.51,4.51,0,0,0-4,1.28c-6.16,6.24-22.45,6.32-22.61,6.32a7.53,7.53,0,0,0-3.77,1A22.9,22.9,0,0,1,45.78,35.67Zm0-7.63a9.61,9.61,0,0,1,8.48,5.22,26.38,26.38,0,0,0-17,0A9.61,9.61,0,0,1,45.78,28ZM89.65,18.5A28.82,28.82,0,0,0,62.6,37.85a26.53,26.53,0,0,0-3.68-2.51,13.33,13.33,0,0,0-26.28,0A26.7,26.7,0,0,0,19.08,58.56v5.72a7.65,7.65,0,0,0,5.7,7.39A23.81,23.81,0,0,0,34.71,90.2l0,.23L13.92,100a13.29,13.29,0,0,0-7.7,10.22L3.88,126.42A5.65,5.65,0,0,0,5.22,131a5.76,5.76,0,0,0,4.38,2H82a5.76,5.76,0,0,0,4.38-2,5.65,5.65,0,0,0,1.34-4.54l-2.34-16.21A13.3,13.3,0,0,0,77.65,100L56.88,90.43l0-.23a23.78,23.78,0,0,0,9.93-18.54,7.66,7.66,0,0,0,3.67-2.19c.2-.22.35-.46.53-.7a28.3,28.3,0,0,0,18.67,7,28.62,28.62,0,0,0,0-57.23"/></g><path class="cls-4" d="M99.79,52.93a1.92,1.92,0,0,0-2.41,1.21s-1.54,4.42-7.73,4.42S82,54.33,81.92,54.13a1.91,1.91,0,0,0-3.62,1.22c.1.29,2.45,7,11.35,7s11.25-6.73,11.35-7a1.92,1.92,0,0,0-1.21-2.42"/><path class="cls-3" d="M52.19,77.78a1.91,1.91,0,0,0-2.47,1.08,4.29,4.29,0,0,1-7.88,0,1.91,1.91,0,0,0-3.57,1.35,8.11,8.11,0,0,0,15,0,1.89,1.89,0,0,0-1.1-2.43"/><path class="cls-4" d="M82.78,45.63A5.7,5.7,0,1,0,77,39.93,5.73,5.73,0,0,0,82.78,45.63Zm0-7.59a1.9,1.9,0,1,1-1.92,1.89A1.91,1.91,0,0,1,82.78,38Z"/><path class="cls-4" d="M97.2,45.63a5.7,5.7,0,1,0-5.73-5.7A5.73,5.73,0,0,0,97.2,45.63Zm0-7.59a1.9,1.9,0,1,1-1.91,1.89A1.91,1.91,0,0,1,97.2,38Z"/></svg>