<svg id="Layer_1" data-name="Layer 1" xmlns="http://www.w3.org/2000/svg" xmlns:xlink="http://www.w3.org/1999/xlink" viewBox="0 0 121 150"><defs><style>.cls-1{fill:none;}.cls-2{fill:#747272;}.cls-3{fill:#2e66f4;}.cls-4{clip-path:url(#clip-path);}.cls-5{clip-path:url(#clip-path-2);}.cls-6{clip-path:url(#clip-path-3);}.cls-7{clip-path:url(#clip-path-4);}</style><clipPath id="clip-path"><rect class="cls-1" x="13.43" y="29.01" width="93" height="104.4"/></clipPath><clipPath id="clip-path-2"><rect class="cls-1" x="73.13" y="19.61" width="44.1" height="62.7"/></clipPath><clipPath id="clip-path-3"><rect class="cls-1" x="2.53" y="19.61" width="44.1" height="62.7"/></clipPath><clipPath id="clip-path-4"><rect class="cls-1" x="89.58" y="27.26" width="14.64" height="24.52"/></clipPath></defs><path class="cls-2" d="M56.13,53.81a5.76,5.76,0,0,0-5.7-5.7,5.7,5.7,0,0,0-5.7,5.7,5.76,5.76,0,0,0,5.7,5.7A5.83,5.83,0,0,0,56.13,53.81Zm-5.8,1.8a1.9,1.9,0,0,1-1.9-1.9,2,2,0,0,1,1.9-1.9,1.9,1.9,0,0,1,1.9,1.9A1.78,1.78,0,0,1,50.33,55.61Z"/><path class="cls-2" d="M69.53,59.41a5.7,5.7,0,0,0,5.7-5.7,5.76,5.76,0,0,0-5.7-5.7,5.7,5.7,0,0,0-5.7,5.7A5.57,5.57,0,0,0,69.53,59.41Zm0-7.5a1.9,1.9,0,0,1,1.9,1.9,2,2,0,0,1-1.9,1.9,1.9,1.9,0,0,1-1.9-1.9A1.78,1.78,0,0,1,69.53,51.91Z"/><path class="cls-3" d="M59.93,106.91a7.6,7.6,0,1,0,7.6,7.6A7.6,7.6,0,0,0,59.93,106.91Zm0,11.4a3.8,3.8,0,1,1,3.8-3.8A3.8,3.8,0,0,1,59.93,118.31Z"/><g class="cls-4"><path class="cls-2" d="M25,55.51c-1.9,5.8-.4,10.8,4.6,13.5l3.9,1.5a30.05,30.05,0,0,0,1.1,3.2,5.79,5.79,0,0,0,3.6,3.4,86.65,86.65,0,0,0,8.4,2.2v6.8H26.73a9.68,9.68,0,0,0-8.7,5.6,47.34,47.34,0,0,0-1.8,34.9l.2.5a9.46,9.46,0,0,0,9,6.5h69.3a9.58,9.58,0,0,0,9.1-6.5l.2-.5a47.34,47.34,0,0,0-1.8-34.9,9.68,9.68,0,0,0-8.7-5.6H73.63v-6.8a61,61,0,0,0,8.4-2.2,6,6,0,0,0,3.6-3.4c.4-1.1.8-2.2,1.1-3.2l3.9-1.5a9.31,9.31,0,0,0,6-8.8,9.51,9.51,0,0,0-7.7-9.3l-1.7-.3a41.27,41.27,0,0,0-1.5-5,5.79,5.79,0,0,0-3.6-3.4,76.67,76.67,0,0,0-10.5-2.6l-.3-1.3a11.22,11.22,0,0,0-22,0l-.3,1.3a62,62,0,0,0-10.5,2.6,6,6,0,0,0-3.6,3.4,47.45,47.45,0,0,0-1.5,5l-1.7.3a8.86,8.86,0,0,0-5.8,3.6m72.6,38.7a38.1,38.1,0,0,1,3,9.2l-11,6.8v-8a5.76,5.76,0,0,0-5.7-5.7h-8.7l2.3-5.7h14.8A6.05,6.05,0,0,1,98.53,93.21Zm3.2,26.7-11.1-1.4v-4.9l11.6-7.2A43.51,43.51,0,0,1,101.73,119.91Zm-53.8-24.3-2.3-5.7h28.8l-2.3,5.7Zm40-41.1a5.68,5.68,0,0,1,4.6,5.6,5.74,5.74,0,0,1-3.6,5.3l-1.5.6a40.3,40.3,0,0,0,.2-11.5ZM60,33a7.49,7.49,0,0,1,7.3,5.9,70.27,70.27,0,0,0-14.5,0A7.3,7.3,0,0,1,60,33Zm-28.9,32.4a5.71,5.71,0,0,1,1-10.9h.2a40.3,40.3,0,0,0,.2,11.5Zm7.1,6.9a36.4,36.4,0,0,1,0-25.6,1.89,1.89,0,0,1,1.2-1.1,65.95,65.95,0,0,1,41.2,0,2.16,2.16,0,0,1,1.2,1.1,36.4,36.4,0,0,1,0,25.6,1.89,1.89,0,0,1-1.2,1.1,66,66,0,0,1-41.2,0A1.5,1.5,0,0,1,38.23,72.31Zm12.2,7.6a77.49,77.49,0,0,0,9.6.7,62,62,0,0,0,9.6-.7v6.2H50.53v-6.2Zm-28.9,13.3a5.75,5.75,0,0,1,5.2-3.3h14.8l2.3,5.7h-8.7a5.7,5.7,0,0,0-5.7,5.7v8l-11-6.8A44.18,44.18,0,0,1,21.53,93.21Zm-3.7,13.3,11.6,7.2v4.9L18.33,120A40.86,40.86,0,0,1,17.83,106.51Zm2.1,19.3-.2-.5a10.93,10.93,0,0,1-.5-1.7l10.2-1.3v5.4a5.82,5.82,0,0,0,.3,1.9h-4.4A5.46,5.46,0,0,1,19.93,125.81Zm15.2,3.9a1.9,1.9,0,0,1-1.9-1.9v-26.6a2,2,0,0,1,1.9-1.9h49.7a1.9,1.9,0,0,1,1.9,1.9v26.6a2,2,0,0,1-1.9,1.9Zm65-3.9a5.8,5.8,0,0,1-5.4,3.9h-4.4a5.82,5.82,0,0,0,.3-1.9v-5.4l10.2,1.3c-.2.6-.3,1.1-.5,1.7Z"/></g><g class="cls-5"><path class="cls-3" d="M107.73,19.61H82.83a9.52,9.52,0,0,0-9.6,9.5v7.6H77v-7.6a5.76,5.76,0,0,1,5.7-5.7h24.9a5.7,5.7,0,0,1,5.7,5.7v28.5a5.76,5.76,0,0,1-5.7,5.7h-1.9a1.76,1.76,0,0,0-1.5.8l-8,10.6v-3.8h-3.8v9.5a1.92,1.92,0,0,0,1.3,1.8,1.27,1.27,0,0,0,.6.1,1.76,1.76,0,0,0,1.5-.8l10.9-14.4h1a9.52,9.52,0,0,0,9.6-9.5V29.11A9.52,9.52,0,0,0,107.73,19.61Z"/></g><path class="cls-3" d="M22.63,38.61h3.8v3.8h-3.8Z"/><path class="cls-3" d="M30.33,38.61h3.8v3.8h-3.8Z"/><path class="cls-3" d="M15,38.61h3.8v3.8H15Z"/><g class="cls-6"><path class="cls-3" d="M25.53,82.21a1.27,1.27,0,0,0,.6-.1,1.92,1.92,0,0,0,1.3-1.8v-9.5h-3.8v3.8l-8-10.6a1.9,1.9,0,0,0-1.5-.8h-1.9a5.7,5.7,0,0,1-5.7-5.7V29a5.76,5.76,0,0,1,5.7-5.7h24.9a5.7,5.7,0,0,1,5.7,5.7v7.6h3.8V29a9.58,9.58,0,0,0-9.6-9.5H12.13A9.52,9.52,0,0,0,2.53,29v28.5a9.58,9.58,0,0,0,9.6,9.5h1L24,81.41A1.56,1.56,0,0,0,25.53,82.21Z"/></g><g class="cls-7"><path class="cls-3" d="M99.19,38.39H94.87A2.9,2.9,0,0,1,93,37.67a2.43,2.43,0,0,1-.81-1.88,2.61,2.61,0,0,1,2.6-2.61H103a1.17,1.17,0,1,0,0-2.33H98V28.42a1.17,1.17,0,0,0-2.34,0v2.34h-.81a5,5,0,0,0-5,5,5,5,0,0,0,1.44,3.5,5.35,5.35,0,0,0,3.59,1.44h4.32A2.6,2.6,0,0,1,101,45.22a2.73,2.73,0,0,1-1.88.72H90.65a1.17,1.17,0,0,0,0,2.33h4.94v2.34a1.17,1.17,0,0,0,2.34,0V48.27H99a5.35,5.35,0,0,0,3.59-1.44,5.09,5.09,0,0,0,1.44-3.5,4.75,4.75,0,0,0-4.85-4.94"/></g><path class="cls-2" d="M66.33,64.81a1.92,1.92,0,0,0-2.5,1.1,4.23,4.23,0,0,1-7.8,0,1.93,1.93,0,1,0-3.6,1.4,8.22,8.22,0,0,0,7.5,5.1,8.07,8.07,0,0,0,7.5-5.1,1.92,1.92,0,0,0-1.1-2.5"/></svg>