<svg id="Layer_1" data-name="Layer 1" xmlns="http://www.w3.org/2000/svg" xmlns:xlink="http://www.w3.org/1999/xlink" viewBox="0 0 121 150"><defs><style>.cls-1,.cls-6{fill:none;}.cls-2{clip-path:url(#clip-path);}.cls-3{fill:#2e66f4;}.cls-4{clip-path:url(#clip-path-2);}.cls-5{clip-path:url(#clip-path-3);}.cls-6{stroke:#747272;stroke-miterlimit:10;stroke-width:4px;}</style><clipPath id="clip-path"><rect class="cls-1" x="73.13" y="16.61" width="44.1" height="62.7"/></clipPath><clipPath id="clip-path-2"><rect class="cls-1" x="2.53" y="15.61" width="44.1" height="62.7"/></clipPath><clipPath id="clip-path-3"><rect class="cls-1" x="89.58" y="27.26" width="14.64" height="24.52"/></clipPath></defs><g class="cls-2"><path class="cls-3" d="M107.73,16.61H82.83a9.52,9.52,0,0,0-9.6,9.44v7.66H77v-7.6a5.76,5.76,0,0,1,5.7-5.7h24.9a5.7,5.7,0,0,1,5.7,5.7v28.5a5.76,5.76,0,0,1-5.7,5.7h-1.9a1.75,1.75,0,0,0-1.5.8l-8,10.6v-3.8H92.4v9.5a1.92,1.92,0,0,0,1.3,1.8,1.23,1.23,0,0,0,.6.1,1.75,1.75,0,0,0,1.5-.8l10.9-14.4h1a9.52,9.52,0,0,0,9.6-9.44V26.11a9.52,9.52,0,0,0-9.54-9.5Z"/></g><path class="cls-3" d="M22.63,38.61h3.8v3.8h-3.8Z"/><path class="cls-3" d="M30.33,38.61h3.8v3.8h-3.8Z"/><path class="cls-3" d="M15,38.61h3.8v3.8H15Z"/><g class="cls-4"><path class="cls-3" d="M25.53,78.21a1.23,1.23,0,0,0,.6-.1,1.92,1.92,0,0,0,1.3-1.8v-9.5h-3.8v3.8l-8-10.6a1.91,1.91,0,0,0-1.5-.8h-1.9a5.7,5.7,0,0,1-5.7-5.7h0V25a5.76,5.76,0,0,1,5.7-5.7h24.9a5.7,5.7,0,0,1,5.7,5.7h0v7.6h3.8V25A9.57,9.57,0,0,0,37,15.5H12.13a9.52,9.52,0,0,0-9.6,9.44V53.5a9.57,9.57,0,0,0,9.6,9.5h1L24,77.41A1.55,1.55,0,0,0,25.53,78.21Z"/></g><g class="cls-5"><path class="cls-3" d="M99.19,38.39H94.87A2.93,2.93,0,0,1,93,37.67a2.44,2.44,0,0,1-.81-1.88,2.61,2.61,0,0,1,2.6-2.61H103a1.17,1.17,0,0,0,.22-2.33.81.81,0,0,0-.22,0H98V28.42a1.17,1.17,0,0,0-2.34,0v2.34h-.81a5,5,0,0,0-5,5h0a5,5,0,0,0,1.44,3.5,5.39,5.39,0,0,0,3.59,1.44H99.2a2.6,2.6,0,0,1,1.8,4.52,2.71,2.71,0,0,1-1.88.72H90.65a1.17,1.17,0,0,0,0,2.33h4.94v2.34a1.17,1.17,0,0,0,2.34,0V48.27H99a5.39,5.39,0,0,0,3.59-1.44,5.09,5.09,0,0,0,1.44-3.5,4.75,4.75,0,0,0-4.56-4.94h-.29"/></g><path class="cls-3" d="M58.85,63.19A12.81,12.81,0,1,0,71.66,76h0A12.82,12.82,0,0,0,58.85,63.19Zm0,19.21a6.4,6.4,0,1,1,6.4-6.4A6.4,6.4,0,0,1,58.85,82.4Z"/><path id="Shape" class="cls-3" d="M79.77,130v-9.08a2.44,2.44,0,1,0-4.84,0V130a2.55,2.55,0,0,0,2.42,2.72A2.6,2.6,0,0,0,79.77,130Z"/><path id="Shape-2" data-name="Shape" class="cls-3" d="M62.68,132.31V117.74c0-2.44-1.23-4.36-2.81-4.36s-2.82,1.92-2.82,4.36v14.57c0,2.45,1.24,4.36,2.82,4.36S62.68,134.76,62.68,132.31Z"/><path id="Shape-3" data-name="Shape" class="cls-3" d="M43,130v-9.08a2.44,2.44,0,1,0-4.84,0V130a2.55,2.55,0,0,0,2.42,2.72A2.59,2.59,0,0,0,43,130Z"/><path id="primary" class="cls-6" d="M65.41,35.94a11.07,11.07,0,0,0-13.12,0c-8.58,6.56-22.45,24.39-18,70.12a4.85,4.85,0,0,0,5,4.09H78.37a4.87,4.87,0,0,0,5-4.09C87.86,60.33,74,42.5,65.41,35.94Z"/><path class="cls-6" d="M33.16,86.15a113.45,113.45,0,0,0-.31,20,3.41,3.41,0,0,1-3.21,3.62H15.54a3.43,3.43,0,0,1-3.42-3.43,23.66,23.66,0,0,1,16.66-24,3.42,3.42,0,0,1,4.38,3.73Z"/><path class="cls-6" d="M84.36,86.15a112.5,112.5,0,0,1,.31,20,3.41,3.41,0,0,0,3.21,3.62H102a3.43,3.43,0,0,0,3.42-3.43,23.65,23.65,0,0,0-16.66-24,3.42,3.42,0,0,0-4.38,3.73Z"/></svg>