<svg width="16" height="128" viewBox="0 0 16 128" fill="none" xmlns="http://www.w3.org/2000/svg"><path d="M10.484 59.412a1.61 1.61 0 00-.615.11 1.172 1.172 0 00-.492.369 2.893 2.893 0 00-.417.724 10.12 10.12 0 00-.403 1.162c-.146.493-.308.937-.486 1.333-.182.397-.39.736-.622 1.019a2.453 2.453 0 01-.8.65c-.3.15-.644.225-1.032.225a2.421 2.421 0 01-1.927-.923 3.316 3.316 0 01-.575-1.073 4.417 4.417 0 01-.205-1.388c0-.747.144-1.38.43-1.9.283-.524.655-.923 1.115-1.197a2.8 2.8 0 011.463-.41v1.313c-.374 0-.704.08-.991.239-.292.16-.52.401-.684.725-.168.323-.253.733-.253 1.23 0 .47.07.857.212 1.162.141.306.333.533.574.684.242.146.518.219.828.219.21 0 .4-.044.574-.13.168-.091.326-.23.471-.417a3.33 3.33 0 00.404-.725c.123-.296.241-.65.355-1.06.16-.565.337-1.052.533-1.462.196-.41.417-.748.663-1.012.242-.269.518-.467.828-.595a2.592 2.592 0 011.039-.198c.405 0 .772.082 1.1.246.328.164.609.399.841.704.232.306.412.672.54 1.1.123.425.185.899.185 1.423a4.928 4.928 0 01-.192 1.36 4.054 4.054 0 01-.574 1.21c-.255.36-.57.65-.943.868-.379.214-.816.321-1.313.321v-1.312c.342 0 .636-.066.882-.198a1.752 1.752 0 00.602-.54 2.52 2.52 0 00.355-.787c.073-.296.11-.603.11-.922 0-.46-.064-.85-.192-1.17-.128-.318-.31-.56-.547-.724a1.413 1.413 0 00-.84-.253zm-.649-11.816v-1.313a4.187 4.187 0 011.688.54c.497.292.891.704 1.183 1.237.287.534.43 1.199.43 1.996 0 .584-.109 1.115-.327 1.593a3.54 3.54 0 01-.93 1.224 4.355 4.355 0 01-1.456.793 6.215 6.215 0 01-1.9.273H7.53a6.148 6.148 0 01-1.893-.273 4.273 4.273 0 01-1.463-.8 3.567 3.567 0 01-.937-1.265 4.055 4.055 0 01-.328-1.66c0-.753.141-1.388.424-1.908.283-.52.675-.923 1.176-1.21.497-.292 1.073-.472 1.73-.54v1.313a3.658 3.658 0 00-1.197.355 1.86 1.86 0 00-.78.738c-.182.32-.273.736-.273 1.251 0 .442.085.832.253 1.17.169.332.408.612.718.84.31.223.681.392 1.114.506.433.114.914.17 1.443.17h1.005c.487 0 .945-.05 1.374-.15a3.657 3.657 0 001.127-.471c.324-.21.58-.477.766-.8.182-.324.274-.706.274-1.149 0-.56-.09-1.007-.267-1.34a1.745 1.745 0 00-.766-.751 3.89 3.89 0 00-1.196-.37zm-6.788-5.91V38.39c0-.747.114-1.378.342-1.893.228-.52.565-.914 1.011-1.183.442-.273.987-.41 1.634-.41.456 0 .873.093 1.251.28.374.182.693.447.957.793.26.342.454.752.581 1.23l.144.37v3.096l-1.073.014V38.35c0-.474-.082-.868-.246-1.182a1.73 1.73 0 00-.677-.711 1.872 1.872 0 00-.937-.24 2.14 2.14 0 00-1.005.226c-.287.15-.508.387-.663.71-.16.32-.239.732-.239 1.238v1.976H13v1.32H3.047zM13 35.867l-4.512 2.42-.007-1.374 4.437-2.454H13v1.408zM7.709 22.595h.629c.747 0 1.417.093 2.01.28a4.317 4.317 0 011.51.807 3.5 3.5 0 01.95 1.265c.22.487.329 1.034.329 1.64 0 .588-.11 1.128-.328 1.62a3.642 3.642 0 01-.95 1.272 4.427 4.427 0 01-1.511.827c-.593.196-1.263.294-2.01.294h-.63c-.746 0-1.414-.096-2.002-.287a4.428 4.428 0 01-1.51-.827 3.542 3.542 0 01-.958-1.265 3.943 3.943 0 01-.328-1.62c0-.606.11-1.153.328-1.64.219-.493.538-.914.957-1.265a4.256 4.256 0 011.511-.814c.588-.191 1.256-.287 2.003-.287zm.629 1.306h-.643c-.592 0-1.116.061-1.572.184a3.26 3.26 0 00-1.148.527 2.27 2.27 0 00-.704.854c-.16.333-.24.711-.24 1.135 0 .41.08.782.24 1.114.159.328.394.61.704.848.31.232.692.412 1.148.54.456.127.98.191 1.572.191h.643c.597 0 1.126-.064 1.586-.191a3.45 3.45 0 001.155-.547 2.42 2.42 0 00.704-.854c.16-.333.24-.705.24-1.115a2.6 2.6 0 00-.24-1.141 2.229 2.229 0 00-.704-.841 3.335 3.335 0 00-1.155-.527 6.388 6.388 0 00-1.586-.177zm3.589-12.118H13v4.977h-1.073v-4.977zM3.047 16.5H13v1.32H3.047V16.5zm8.88-15.064H13v4.977h-1.073V1.436zm-8.88 4.717H13v1.32H3.047v-1.32zm4.6 121.444a.5.5 0 00.707 0l3.182-3.182a.5.5 0 000-.707.5.5 0 00-.708 0L8 126.536l-2.828-2.828a.5.5 0 10-.707.707l3.182 3.182zM7.5 79.977v47.267h1V79.977h-1z" fill="#fff"/></svg>